<svg xmlns="http://www.w3.org/2000/svg" width="334.652" height="178.761" viewBox="0 0 334.652 178.761">
  <g id="Group_269" data-name="Group 269" transform="translate(-35.4 -268.5)">
    <g id="Group_267" data-name="Group 267">
      <path id="Path_1498" data-name="Path 1498" d="M444.361,9.142c-1.758,3.446-3.516,6.892-5.345,10.337-.352-.141-.7-.211-1.055-.352.141-1.758.352-3.446.492-5.415-.774-.211-1.547-.352-2.321-.492a6.368,6.368,0,0,1-4.993-5.2,6.419,6.419,0,0,1,3.024-6.892c.563-.352,1.125-.774,1.688-1.125h8.439C444.361,3.024,444.361,6.118,444.361,9.142Z" transform="translate(-89.907 268.5)" fill="#3d7df2"/>
      <path id="Path_1500" data-name="Path 1500" d="M415.582,0c6.962,4.219,6.4,13.432-1.125,19.269.211-1.828.352-3.657.563-5.415-6.188-1.688-8.79-4.923-6.962-9.283.774-1.758,2.6-3.094,4.008-4.571Z" transform="translate(-82.929 268.5)" fill="#3d7df2"/>
      <path id="Path_1501" data-name="Path 1501" d="M283.712,15.633H64.515c-25.105,0-42.123,17.018-42.123,42.123V90.1c0,2.11-.281,3.586-3.165,2.6-.07-.914-.141-1.9-.141-2.954,0-11.392-.07-22.714,0-34.107.141-24.4,19.128-43.46,43.6-43.46q108.965-.105,218,0C282.657,12.257,284.908,11.906,283.712,15.633Z" transform="translate(16.345 256.893)" fill="#3d7df2"/>
    </g>
    <g id="Group_268" data-name="Group 268">
      <path id="Path_1499" data-name="Path 1499" d="M0,230.921a20.368,20.368,0,0,1,1.336-2.039A6.2,6.2,0,0,1,8.72,226.35a6.1,6.1,0,0,1,4.571,6.329c-.141,4.923-2.391,8.861-6.259,12.939.281-2.391.492-4.079.563-4.782-2.813-2.391-5.2-4.36-7.595-6.329Z" transform="translate(38 201.432)" fill="#3d7df2"/>
      <path id="Path_1502" data-name="Path 1502" d="M54.436,208.688c-.914-2.6-.211-3.516,2.11-3.376,1.055.07,2.11,0,3.165,0H274.758c19.479,0,35.161-11.955,39.8-30.38a45.237,45.237,0,0,0,1.2-9.7c.141-11.463.07-22.925,0-34.458,0-2.11.281-3.586,3.165-2.6.07.914.141,1.9.141,2.954,0,11.463.07,23,0,34.458A42.869,42.869,0,0,1,284.533,207.7a60.7,60.7,0,0,1-11.885.914q-99.472.105-198.873.07Z" transform="translate(50.959 234.556)" fill="#3d7df2"/>
      <path id="Path_1503" data-name="Path 1503" d="M30.5,245.86c.281-2.25.492-3.516.633-4.782a10.3,10.3,0,0,0,0-1.477,31.042,31.042,0,0,1-3.305-.985A6.519,6.519,0,0,1,30.644,226.1a6.071,6.071,0,0,1,6.118,5.556C37.184,237.14,34.582,241.359,30.5,245.86Z" transform="translate(30.915 201.401)" fill="#3d7df2"/>
    </g>
    <text id="We_are_a_team_of_professionals_with_14_years_trading_the_financial_markets._We_strive_to_be_the_best_Forex_Signals_provider_globally." data-name="We are a team of professionals with 14+
years trading the financial markets.
We strive to be the best Forex
 Signals provider globally." transform="translate(197 330.5)" fill="#3d7df2" font-size="16" font-family="K2D-Medium, K2D" font-weight="500"><tspan x="-142.392" y="0">We are a team of professionals with 14+</tspan><tspan x="-128.552" y="21">years trading the financial markets.</tspan><tspan x="-106.656" y="42">We strive to be the best Forex</tspan><tspan x="-94.248" y="63" xml:space="preserve"> Signals provider globally.</tspan></text>
  </g>
</svg>
