<svg xmlns="http://www.w3.org/2000/svg" width="298.982" height="206.762" viewBox="0 0 298.982 206.762">
  <g id="Group_4" data-name="Group 4" transform="translate(0.001 0)">
    <path id="Path_8" data-name="Path 8" d="M196.67,386.32c-5.535,4.529,3.522,44.281,3.522,44.281s2.013,60.635,6.29,63.4,13.838-.252,17.612-.755.5-37.991-5.032-51.829-1.258-33.966-1.258-33.966l29.94,5.787s-18.115,15.347-17.36,18.618,20.128,14.341,23.65,14.844,10.315-20.128,16.354-34.217-41.262-23.147-41.262-23.147l-6.542-12.328S202.2,381.791,196.67,386.32Z" transform="translate(-169.648 -296.018)" fill="#2f2e41"/>
    <path id="Path_9" data-name="Path 9" d="M247.876,740.45s-1.826,6.39,0,6.39,5.173,1.826,10.346,1.217,3.651-7,0-7.911-2.739-8.216-2.739-8.216c-1.217-2.434-7,.609-7,.609Z" transform="translate(-205.828 -541.42)" fill="#2f2e41"/>
    <path id="Path_10" data-name="Path 10" d="M329.928,577.69s-3.132,5.861-1.348,6.246,4.672,2.876,9.857,3.372,5.045-6.071,1.668-7.734-.944-8.609-.944-8.609c-.676-2.636-6.97-.881-6.97-.881Z" transform="translate(-261.96 -429.474)" fill="#2f2e41"/>
    <path id="Path_11" data-name="Path 11" d="M207.812,229.274c.5,1.006-1.761,13.586-1.761,13.586l2.013,3.522s11.574-4.529,9.812-5.284-1.51-10.064-1.51-10.064S207.309,228.268,207.812,229.274Z" transform="translate(-177.395 -193.442)" fill="#ffb9b9"/>
    <circle id="Ellipse_1" data-name="Ellipse 1" cx="15.426" cy="15.426" r="15.426" transform="translate(19.348 8.856)" fill="#2f2e41"/>
    <circle id="Ellipse_2" data-name="Ellipse 2" cx="6.383" cy="6.383" r="6.383" transform="translate(27.327 3.458)" fill="#2f2e41"/>
    <path id="Path_12" data-name="Path 12" d="M231.631,125.685a6.457,6.457,0,0,0,.665.035,6.383,6.383,0,1,0,0-12.767,6.457,6.457,0,0,0-.665.035,6.384,6.384,0,0,1,0,12.7Z" transform="translate(-195.128 -112.953)" fill="#2f2e41"/>
    <circle id="Ellipse_3" data-name="Ellipse 3" cx="10.567" cy="10.567" r="10.567" transform="translate(24.631 21.239)" fill="#ffb9b9"/>
    <path id="Path_13" data-name="Path 13" d="M157.847,262.583c-3.271.755-8.806,8.806-8.806,8.806l8.806,8.806s6.29,23.65,7.045,24.657c4.945,6.593,27.173-8.051,27.173-8.051s-.881-7.171-.377-10.693c.484-3.388-1.887-10.19-1.887-10.19s8.3-3.522,6.542-7.045-12.58-11.574-17.109-8.806-13.586,0-13.586,0A71.066,71.066,0,0,1,157.847,262.583Z" transform="translate(-137.871 -214.549)" fill="#e6e6e6"/>
    <path id="Path_14" data-name="Path 14" d="M387.331,431.428s14.341,12.328,17.863,9.812-13.586-11.322-13.586-11.322Z" transform="translate(-303.071 -332.697)" fill="#ffb9b9"/>
    <path id="Path_15" data-name="Path 15" d="M175.937,405.5c2.013,2.264,11.574-3.522,10.348-6.092s-8.838,2.57-8.838,2.57S173.924,403.234,175.937,405.5Z" transform="translate(-156.086 -311.045)" fill="#ffb9b9"/>
    <path id="Path_16" data-name="Path 16" d="M132.6,295.531l-10.567,19.625s12.077,10.064,13.586,10.315-3.019,6.793-3.019,6.793-13.586-9.561-18.87-14.341,10.064-25.915,10.064-25.915l4.529-2.768Z" transform="translate(-112.622 -235.169)" fill="#e6e6e6"/>
    <path id="Path_17" data-name="Path 17" d="M277.825,292.5l12.328,19.121s18.87,21.134,21.386,22.141,5.535-3.774,5.535-3.774L294.43,302.566l-8.554-15.347-3.271-1.258Z" transform="translate(-227.154 -232.894)" fill="#e6e6e6"/>
    <ellipse id="Ellipse_4" data-name="Ellipse 4" cx="10.639" cy="6.383" rx="10.639" ry="6.383" transform="translate(24.135 12.868)" fill="#2f2e41"/>
    <path id="Path_18" data-name="Path 18" d="M320.326,624.742a1.317,1.317,0,0,0-1.315,1.315v44.857a1.317,1.317,0,0,0,1.315,1.315H473.28a1.317,1.317,0,0,0,1.315-1.315V626.057a1.317,1.317,0,0,0-1.315-1.315Z" transform="translate(-255.707 -467.763)" fill="#e6e6e6"/>
    <path id="Path_19" data-name="Path 19" d="M329.757,676.383H478.749v-40.9H329.757Z" transform="translate(-263.157 -475.213)" fill="#fff"/>
    <path id="Path_20" data-name="Path 20" d="M749.272,741.157a2.179,2.179,0,1,0,0,4.357h8.714a2.179,2.179,0,1,0,0-4.357Z" transform="translate(-552.486 -548.471)" fill="#6c63ff"/>
    <rect id="Rectangle_1" data-name="Rectangle 1" width="100.595" height="0.573" transform="translate(107.084 188.46)" fill="#e6e6e6"/>
    <circle id="Ellipse_5" data-name="Ellipse 5" cx="12.689" cy="12.689" r="12.689" transform="translate(73.368 168.033)" fill="#6c63ff"/>
    <path id="Path_21" data-name="Path 21" d="M348.922,556.329l-.318-.477,10.453-6.969,7.168,3.441,10.311-6.587,20.51,8.749,16.333-8.023,15.86,6.43,19.929-17.651.38.429-20.195,17.887L413.4,547.09l-16.339,8.026-20.473-8.733-10.324,6.6-7.162-3.437Z" transform="translate(-241.679 -371.069)" fill="#3f3d56"/>
    <path id="Path_22" data-name="Path 22" d="M463.607,742.134a1.863,1.863,0,0,0,0,3.726H483.1a1.863,1.863,0,0,0,0-3.726Z" transform="translate(-354.66 -549.148)" fill="#e6e6e6"/>
    <path id="Path_23" data-name="Path 23" d="M382.542,683.645h1.983l-4.126,4.083a3.852,3.852,0,0,1-5.408,0l-4.125-4.083h1.983l3.134,3.1a2.44,2.44,0,0,0,3.425,0ZM372.824,695h-1.983l4.151-4.108a3.852,3.852,0,0,1,5.408,0L384.55,695h-1.983l-3.16-3.127a2.44,2.44,0,0,0-3.425,0Z" transform="translate(-291.639 -508.599)" fill="#fff"/>
    <path id="Path_24" data-name="Path 24" d="M385.261,156.307a1.317,1.317,0,0,0-1.315,1.315v44.857a1.317,1.317,0,0,0,1.315,1.315H538.215a1.317,1.317,0,0,0,1.315-1.315V157.622a1.317,1.317,0,0,0-1.315-1.315Z" transform="translate(-300.725 -143.009)" fill="#e6e6e6"/>
    <path id="Path_25" data-name="Path 25" d="M394.692,207.948H543.685v-40.9H394.692Z" transform="translate(-308.175 -150.458)" fill="#fff"/>
    <path id="Path_26" data-name="Path 26" d="M814.208,272.722a2.179,2.179,0,0,0,0,4.357h8.714a2.179,2.179,0,0,0,0-4.357Z" transform="translate(-597.504 -223.717)" fill="#6c63ff"/>
    <rect id="Rectangle_2" data-name="Rectangle 2" width="100.595" height="0.573" transform="translate(127.001 44.78)" fill="#e6e6e6"/>
    <circle id="Ellipse_6" data-name="Ellipse 6" cx="12.689" cy="12.689" r="12.689" transform="translate(93.285 24.353)" fill="#6c63ff"/>
    <path id="Path_27" data-name="Path 27" d="M413.857,87.893l-.318-.477,10.453-6.969,7.168,3.441L441.471,77.3l.139.059,20.371,8.69,16.333-8.023,15.86,6.43L514.1,66.805l.38.429L494.288,85.121l-15.952-6.467L462,86.68l-20.473-8.733-10.324,6.6-7.162-3.438Z" transform="translate(-286.697 -46.314)" fill="#3f3d56"/>
    <path id="Path_28" data-name="Path 28" d="M528.542,273.7a1.863,1.863,0,0,0,0,3.726h19.489a1.863,1.863,0,0,0,0-3.726Z" transform="translate(-399.678 -224.394)" fill="#e6e6e6"/>
    <path id="Path_29" data-name="Path 29" d="M449.031,215.157c.237-1.588-.972-2.441-2.625-3.011l.536-2.151-1.31-.326-.522,2.094c-.344-.086-.7-.167-1.049-.247l.526-2.108-1.309-.326-.537,2.15c-.285-.065-.565-.129-.836-.2v-.007l-1.806-.451-.348,1.4s.971.223.951.236a.7.7,0,0,1,.61.762l-.611,2.45a1.09,1.09,0,0,1,.136.044l-.138-.034-.857,3.433a.477.477,0,0,1-.6.311c.013.019-.952-.238-.952-.238l-.65,1.5,1.7.425c.317.079.628.163.933.241l-.542,2.176,1.308.326.537-2.152c.357.1.7.186,1.043.271l-.535,2.142,1.309.326.542-2.171c2.233.422,3.912.252,4.618-1.767a2.3,2.3,0,0,0-1.2-3.176,2.09,2.09,0,0,0,1.672-1.923Zm-2.992,4.195c-.405,1.626-3.142.747-4.03.527l.719-2.882c.888.222,3.733.66,3.311,2.356Zm.4-4.218c-.369,1.479-2.648.728-3.387.543l.652-2.614c.74.184,3.12.528,2.735,2.071Z" transform="translate(-337.952 -179.596)" fill="#fff"/>
    <path id="Path_30" data-name="Path 30" d="M581.448,390.524a1.317,1.317,0,0,0-1.315,1.315V436.7a1.317,1.317,0,0,0,1.315,1.315H734.4a1.317,1.317,0,0,0,1.315-1.315V391.839a1.317,1.317,0,0,0-1.315-1.315Z" transform="translate(-436.736 -305.386)" fill="#e6e6e6"/>
    <path id="Path_31" data-name="Path 31" d="M590.878,442.166H739.871v-40.9H590.878Z" transform="translate(-444.186 -312.836)" fill="#fff"/>
    <path id="Path_32" data-name="Path 32" d="M1010.4,506.94a2.179,2.179,0,1,0,0,4.357h8.714a2.179,2.179,0,1,0,0-4.357H1010.4Z" transform="translate(-733.517 -386.094)" fill="#6c63ff"/>
    <rect id="Rectangle_3" data-name="Rectangle 3" width="100.595" height="0.573" transform="translate(187.177 116.62)" fill="#e6e6e6"/>
    <circle id="Ellipse_7" data-name="Ellipse 7" cx="12.689" cy="12.689" r="12.689" transform="translate(153.46 96.193)" fill="#6c63ff"/>
    <path id="Path_33" data-name="Path 33" d="M610.043,322.111l-.318-.477,10.453-6.969,7.168,3.441,10.31-6.587.14.059,20.371,8.69,16.333-8.023,15.86,6.43,19.929-17.651.38.429-20.195,17.887-15.952-6.467L658.184,320.9l-20.473-8.733-10.325,6.6-7.161-3.437Z" transform="translate(-422.708 -208.692)" fill="#3f3d56"/>
    <path id="Path_34" data-name="Path 34" d="M724.728,507.917a1.863,1.863,0,0,0,0,3.726h19.489a1.863,1.863,0,0,0,0-3.726Z" transform="translate(-535.689 -386.771)" fill="#e6e6e6"/>
    <path id="Path_35" data-name="Path 35" d="M530.081,365.9l5.137-7.234-5.137,3.033h0l-5.134-3.033,5.133,7.234h0Z" transform="translate(-363.933 -248.651)" fill="#fff"/>
    <path id="Path_36" data-name="Path 36" d="M530.08,339.269h0l5.134-3.034-5.134-8.518h0l-5.133,8.518Z" transform="translate(-363.933 -227.198)" fill="#fff"/>
  </g>
</svg>
