<svg xmlns="http://www.w3.org/2000/svg" width="224.063" height="204.18" viewBox="0 0 224.063 204.18">
  <g id="Group_251" data-name="Group 251" transform="translate(-0.038 0)">
    <path id="Path_1504" data-name="Path 1504" d="M551.556,421.76h-49.33a.652.652,0,0,1-.651-.651V366.833a.652.652,0,0,1,.651-.651h49.33a.652.652,0,0,1,.651.651v54.276A.652.652,0,0,1,551.556,421.76Z" transform="translate(-414.827 -285.652)" fill="#fff"/>
    <path id="Path_1505" data-name="Path 1505" d="M551.556,421.76h-49.33a.652.652,0,0,1-.651-.651V366.833a.652.652,0,0,1,.651-.651h49.33a.652.652,0,0,1,.651.651v54.276A.652.652,0,0,1,551.556,421.76Zm-49.33-55.317a.391.391,0,0,0-.391.391v54.275a.391.391,0,0,0,.391.39h49.33a.391.391,0,0,0,.39-.39V366.833a.391.391,0,0,0-.391-.39Z" transform="translate(-414.827 -285.652)" fill="#3f3d56"/>
    <path id="Path_1506" data-name="Path 1506" d="M549.631,407.551H537.4a.652.652,0,0,1-.651-.651V394.666a.651.651,0,0,1,.651-.651h12.235a.651.651,0,0,1,.651.651V406.9A.651.651,0,0,1,549.631,407.551ZM537.4,394.275a.391.391,0,0,0-.391.391V406.9a.391.391,0,0,0,.391.391h12.235a.391.391,0,0,0,.391-.39V394.666a.391.391,0,0,0-.391-.39Z" transform="translate(-440.951 -306.326)" fill="#f2f2f2"/>
    <path id="Path_1507" data-name="Path 1507" d="M536.156,413.746H523.921a.586.586,0,0,1-.586-.586V400.926a.586.586,0,0,1,.586-.586h12.235a.586.586,0,0,1,.586.586v12.235A.586.586,0,0,1,536.156,413.746Z" transform="translate(-430.99 -311.024)" fill="#6c63ff"/>
    <path id="Path_1508" data-name="Path 1508" d="M562.187,472.357H523.921a.586.586,0,1,1,0-1.171h38.266a.586.586,0,0,1,0,1.171Z" transform="translate(-430.989 -363.647)" fill="#ccc"/>
    <path id="Path_1509" data-name="Path 1509" d="M552.946,488.044H523.922a.586.586,0,0,1,0-1.171h29.025a.586.586,0,0,1,0,1.171Z" transform="translate(-430.99 -375.3)" fill="#ccc"/>
    <path id="Path_1510" data-name="Path 1510" d="M623.325,414.669H606.4a.586.586,0,0,1,0-1.171h16.92a.586.586,0,0,1,0,1.171Z" transform="translate(-492.258 -320.797)" fill="#6c63ff"/>
    <path id="Path_1511" data-name="Path 1511" d="M619.1,430.356h-12.7a.586.586,0,1,1,0-1.171h12.7a.586.586,0,0,1,0,1.171Z" transform="translate(-492.258 -332.449)" fill="#6c63ff"/>
    <path id="Path_1512" data-name="Path 1512" d="M562.187,503.731H523.921a.586.586,0,1,1,0-1.171h38.266a.586.586,0,0,1,0,1.171Z" transform="translate(-430.989 -386.952)" fill="#ccc"/>
    <path id="Path_1513" data-name="Path 1513" d="M552.946,519.418H523.922a.586.586,0,0,1,0-1.171h29.025a.586.586,0,1,1,0,1.171Z" transform="translate(-430.99 -398.604)" fill="#ccc"/>
    <path id="Path_1514" data-name="Path 1514" d="M562.187,535.106H523.921a.586.586,0,1,1,0-1.171h38.266a.586.586,0,0,1,0,1.171Z" transform="translate(-430.989 -410.257)" fill="#ccc"/>
    <path id="Path_1515" data-name="Path 1515" d="M562.187,550.793H523.921a.586.586,0,1,1,0-1.171h38.266a.586.586,0,0,1,0,1.171Z" transform="translate(-430.989 -421.909)" fill="#ccc"/>
    <path id="Path_1516" data-name="Path 1516" d="M241.62,565.8a38.068,38.068,0,0,1-24.138,35.433c-.551.221-1.12.429-1.691.622q-.957.328-1.934.6-.679.189-1.371.355a38.3,38.3,0,0,1-20.991-.9c-.532-.177-1.06-.368-1.582-.566-.7-.27-1.4-.561-2.078-.872-.051-.021-.1-.044-.149-.067-.268-.123-.527-.247-.792-.378h0q-.544-.262-1.078-.545-1.227-.648-2.4-1.381-.61-.378-1.2-.784a38.051,38.051,0,0,1,13.632-68.808q1.007-.208,2.035-.36c.43-.067.864-.123,1.3-.172.311-.036.622-.069.939-.1h0q1.269-.116,2.562-.144l.358-.008c.067,0,.134,0,.2,0h0c.1,0,.206,0,.311,0,.432,0,.864.008,1.294.023q1.42.046,2.809.2c.535.057,1.062.126,1.59.2.059.01.121.018.18.028.175.028.352.057.527.087.37.059.738.129,1.106.2.345.069.687.141,1.029.219a37.061,37.061,0,0,1,3.74,1.062,38.172,38.172,0,0,1,20.047,15.929q.2.312.386.633c.1.159.19.319.283.481q.05.081.093.162c.021.031.036.062.054.093.17.3.334.6.494.9A37.9,37.9,0,0,1,241.62,565.8Z" transform="translate(-165.157 -405.654)" fill="#fff"/>
    <path id="Path_1517" data-name="Path 1517" d="M202.815,603.388a38.529,38.529,0,0,1-12.142-1.963c-.506-.169-1.027-.355-1.593-.57-.715-.275-1.419-.57-2.094-.878-.045-.018-.1-.043-.152-.068-.256-.118-.506-.237-.761-.363l-.036-.017c-.361-.174-.727-.359-1.086-.55-.819-.433-1.632-.9-2.416-1.39-.408-.253-.815-.519-1.21-.791a38.308,38.308,0,0,1,13.726-69.272c.673-.139,1.363-.261,2.049-.363.406-.063.847-.122,1.308-.173.313-.036.627-.07.947-.1.848-.077,1.715-.126,2.58-.145l.427-.008c.049,0,.1,0,.147,0,.092,0,.2,0,.3,0,.435,0,.874.008,1.3.023.949.031,1.9.1,2.827.2.491.052,1.014.119,1.6.2l.247.039c.156.025.313.05.468.078.334.053.688.118,1.112.2.346.07.69.142,1.034.22a37.485,37.485,0,0,1,3.766,1.07,38.538,38.538,0,0,1,20.182,16.036q.2.314.389.638c.1.158.191.32.285.484.03.048.062.1.091.159.014.023.027.045.04.068l.015.026c.162.282.325.578.5.907a38.335,38.335,0,0,1-19.828,53.641c-.545.218-1.12.43-1.709.629-.638.219-1.293.423-1.947.606-.453.126-.917.246-1.38.358a38.58,38.58,0,0,1-8.989,1.063Zm-16.607-4.348h0l.057.027c.263.13.52.253.786.375.047.022.091.043.137.062.677.309,1.371.6,2.075.871.559.212,1.073.4,1.571.562a38.013,38.013,0,0,0,20.849.889c.457-.11.915-.228,1.362-.353.644-.18,1.29-.382,1.92-.6.581-.2,1.148-.405,1.685-.621a37.594,37.594,0,0,0,23.97-35.192h0a37.772,37.772,0,0,0-4.407-17.729c-.172-.324-.332-.615-.49-.89l-.019-.034c-.008-.015-.016-.029-.026-.044l-.014-.024q-.038-.073-.083-.146c-.1-.167-.187-.325-.283-.482-.127-.215-.254-.424-.384-.63A38.022,38.022,0,0,0,215,529.261a36.909,36.909,0,0,0-3.714-1.055c-.34-.077-.68-.148-1.022-.217-.417-.085-.765-.149-1.1-.2-.157-.028-.311-.052-.464-.077l-.247-.039c-.572-.084-1.088-.15-1.573-.2-.915-.1-1.853-.164-2.79-.194-.424-.015-.856-.023-1.285-.023-.1,0-.2,0-.3,0-.059,0-.1,0-.139,0l-.422.008c-.852.019-1.708.067-2.544.143h-.026c-.293.025-.6.058-.909.093-.454.051-.888.109-1.289.171-.678.1-1.358.22-2.022.358a37.794,37.794,0,0,0-13.54,68.343c.39.268.791.53,1.193.779.774.484,1.576.945,2.384,1.372C185.528,598.7,185.869,598.876,186.207,599.04Z" transform="translate(-164.414 -404.912)" fill="#cbcbcb"/>
    <path id="Path_1518" data-name="Path 1518" d="M379.874,621.707a4.674,4.674,0,0,1-7.16.311l-10.043,3.635-3.7-5.564,14.255-4.933a4.7,4.7,0,0,1,6.646,6.553Z" transform="translate(-308.903 -469.822)" fill="#9f616a"/>
    <path id="Path_1519" data-name="Path 1519" d="M153.806,572.778l20.691-6.839,3.487,7.611-19.291,5.916Z" transform="translate(-114.218 -420.375)" fill="#ccc"/>
    <path id="Path_1520" data-name="Path 1520" d="M287.7,754.614a38.3,38.3,0,0,1-20.991-.9l.463-4.378.43-4.09,6.443-9.962,2.065-3.192,8.511,3.094.867,5.466,1.381,8.717Z" transform="translate(-240.368 -557.451)" fill="#2f2e41"/>
    <path id="Path_1521" data-name="Path 1521" d="M277.4,759.74c-.558.224-1.127.432-1.7.625q-.957.328-1.934.6-.679.189-1.371.355a38.3,38.3,0,0,1-20.991-.9c-.532-.177-1.06-.368-1.582-.566a29.627,29.627,0,0,1-.139,4.565,53.973,53.973,0,0,1-1.939-5.437c-.039-.123-.075-.247-.111-.37-.18-.622-.34-1.217-.484-1.775-.165-.646-.306-1.245-.424-1.793-.471-2.15-.62-3.48-.62-3.48l5.028-10.443,1.006.116.417.046,2.521.288,3.663.419,5.934.676,5.509,4.692,4.936,4.205s.412,1.4,1.057,3.717C276.526,756.532,276.94,758.042,277.4,759.74Z" transform="translate(-225.066 -564.158)" fill="#2f2e41"/>
    <circle id="Ellipse_37" data-name="Ellipse 37" cx="8.897" cy="8.897" r="8.897" transform="translate(27.493 108.323)" fill="#9f616a"/>
    <path id="Path_1522" data-name="Path 1522" d="M258.715,562.61s-2.138-6.61-7.167-6.61a9.087,9.087,0,0,0-4.935,1.18A24.529,24.529,0,0,0,235.623,576.8l-1.546,39.579s8.51,3.095,11.6,1.934,6.189-8.9,6.189-8.9-.774,10.444,2.321,10.057,14.7-1.16,15.086-2.708-5.922-34.816-5.922-34.816Z" transform="translate(-216.131 -426.647)" fill="#ccc"/>
    <path id="Path_1523" data-name="Path 1523" d="M271.165,469.4a12.563,12.563,0,0,1,2.37.327,6,6,0,0,0,6.412-4.473,3.432,3.432,0,0,1,.328-1.069,2.117,2.117,0,0,1,2.25-.685,17.367,17.367,0,0,0,2.431.591,3.722,3.722,0,0,0,3.212-1.818,6.164,6.164,0,0,0,.788-3.723l-.618.648a3.137,3.137,0,0,1-.28-1.705,1.979,1.979,0,0,0-1.874.48c-.545.058-.134-1.01-.538-1.379a.936.936,0,0,0-.659-.123c-1.159.011-2.1-.875-3.009-1.588a12.786,12.786,0,0,0-5.4-2.463,7.1,7.1,0,0,0-3.94.191,8.417,8.417,0,0,0-2.661,1.888,16.244,16.244,0,0,0-4.471,6.633,11.167,11.167,0,0,0-.053,6.475c.326,1.1,1.307,4.863,2.744,4.951C270,472.666,268.918,469.532,271.165,469.4Z" transform="translate(-239.1 -349.569)" fill="#2f2e41"/>
    <path id="Path_1524" data-name="Path 1524" d="M104.437,574.153l-9.111,13.362-2.914,31.037Z" transform="translate(-68.616 -426.476)" opacity="0.1"/>
    <ellipse id="Ellipse_38" data-name="Ellipse 38" cx="0.68" cy="0.255" rx="0.68" ry="0.255" transform="translate(73.625 139.767) rotate(-54.492)" fill="#3f3d56"/>
    <path id="Path_1525" data-name="Path 1525" d="M405.022,603.28h0a1.189,1.189,0,0,1-.277-1.659h0L415.106,587.1a1.189,1.189,0,0,1,1.659-.277h0Z" transform="translate(-342.737 -449.375)" fill="#6c63ff"/>
    <path id="Path_1526" data-name="Path 1526" d="M405.219,603.246l-.6-.428a.963.963,0,0,1-.225-1.343l11.8-16.536a.813.813,0,0,1,1.134-.19h0l.722.515h0l-12.829,17.981Z" transform="translate(-342.509 -447.89)" fill="#2f2e41"/>
    <rect id="Rectangle_34" data-name="Rectangle 34" width="1.359" height="0.34" transform="translate(72.538 139.827) rotate(-54.492)" fill="#d0cde1"/>
    <rect id="Rectangle_35" data-name="Rectangle 35" width="1.359" height="0.34" transform="translate(71.453 141.348) rotate(-54.492)" fill="#d0cde1"/>
    <path id="Path_1527" data-name="Path 1527" d="M240.229,782.79a4.674,4.674,0,0,0-1.772-6.944l.577-10.665-6.4-1.931-.6,15.073a4.7,4.7,0,0,0,8.194,4.468Z" transform="translate(-214.364 -580.59)" fill="#9f616a"/>
    <path id="Path_1528" data-name="Path 1528" d="M230.663,635.952h-9.252l-2.546-28.5.009-.026,8.66-25.434a6.814,6.814,0,1,1,12.407,5.5l-10.19,18.351Z" transform="translate(-204.832 -442.524)" fill="#ccc"/>
    <path id="Path_1529" data-name="Path 1529" d="M814.523,214.649a38.1,38.1,0,1,1-38.939-38.057l.357-.008c.17,0,.342,0,.514,0,.432,0,.864.008,1.294.023q1.42.046,2.809.2c.535.057,1.062.126,1.589.2l.18.028a37.6,37.6,0,0,1,6.4,1.572A38.087,38.087,0,0,1,814.523,214.649Z" transform="translate(-590.678 -144.818)" fill="#fff"/>
    <path id="Path_1530" data-name="Path 1530" d="M775.673,252.3a38.359,38.359,0,0,1-.842-76.709l.358-.008c.606-.009,1.222,0,1.823.021.948.031,1.9.1,2.827.2.491.052,1.015.119,1.6.2l.187.029a38.282,38.282,0,0,1,32.408,37.87h0a38.4,38.4,0,0,1-38.323,38.4Zm.031-76.2c-.17,0-.339,0-.507,0l-.356.008a37.844,37.844,0,0,0,.831,75.68h.036a37.888,37.888,0,0,0,37.809-37.88h0a37.767,37.767,0,0,0-31.977-37.363l-.185-.029c-.571-.084-1.088-.15-1.573-.2-.916-.1-1.854-.164-2.79-.194-.424-.015-.856-.023-1.285-.023Z" transform="translate(-589.932 -144.073)" fill="#cbcbcb"/>
    <ellipse id="Ellipse_39" data-name="Ellipse 39" cx="0.255" cy="0.68" rx="0.255" ry="0.68" transform="matrix(0.535, -0.845, 0.845, 0.535, 155.364, 71.374)" fill="#3f3d56"/>
    <path id="Path_1531" data-name="Path 1531" d="M769.014,322.369h0a1.189,1.189,0,0,1,1.641-.369h0l15.073,9.545a1.189,1.189,0,0,1,.369,1.641h0Z" transform="translate(-613.478 -252.697)" fill="#6c63ff"/>
    <path id="Path_1532" data-name="Path 1532" d="M763.471,322.676l.474-.749a.813.813,0,0,1,1.121-.252h0l17.162,10.868a.963.963,0,0,1,.3,1.328l-.394.622h0l-18.661-11.817Z" transform="translate(-609.36 -252.498)" fill="#2f2e41"/>
    <rect id="Rectangle_36" data-name="Rectangle 36" width="0.34" height="1.359" transform="matrix(0.535, -0.845, 0.845, 0.535, 156.483, 70.876)" fill="#d0cde1"/>
    <rect id="Rectangle_37" data-name="Rectangle 37" width="0.34" height="1.359" transform="matrix(0.535, -0.845, 0.845, 0.535, 158.063, 71.876)" fill="#d0cde1"/>
    <circle id="Ellipse_40" data-name="Ellipse 40" cx="10.713" cy="10.713" r="10.713" transform="translate(175.165 14.256)" fill="#ffb8b8"/>
    <path id="Path_1533" data-name="Path 1533" d="M851.067,386.278a38.246,38.246,0,0,1-26.171-2.045l.823-21.991.062-1.71.023-.556.028-.818.021-.522.1-.005c.175-.013.579-.041,1.157-.075.671-.039,1.574-.087,2.626-.131.25-.01.507-.021.772-.033,5.54-.206,14.193-.25,15.337,1.42l.144.983.231,1.587.473,3.243S852.073,376.324,851.067,386.278Z" transform="translate(-654.986 -279.79)" fill="#2f2e41"/>
    <path id="Path_1534" data-name="Path 1534" d="M852.965,216.406l-2.11,19.491-4.019,8.889-1.489,3.3-21.557-.261,2.221-15.025c-3.136-8.1,4.311-11.366,4.311-11.366l7.725-15.827s2.058-1.029,7.43-1.288c4.995-.241,1.057.516,1.057.516C853.067,204.179,852.965,216.406,852.965,216.406Z" transform="translate(-654.165 -165.384)" fill="#ccc"/>
    <path id="Path_1535" data-name="Path 1535" d="M893.845,255.958l-4.019,8.889c-1.291-2.414-2.273-5.149-2.273-6.764,0-4.442,4.442-2.09,4.442-2.09s-3.593-19.663-3.593-25.542C888.4,226.546,891.658,243.877,893.845,255.958Z" transform="translate(-701.528 -184.415)" opacity="0.2"/>
    <path id="Path_1536" data-name="Path 1536" d="M856.006,71.529a12.008,12.008,0,0,0-3.151-4.437,2.343,2.343,0,0,0,1.318-1.11,2.487,2.487,0,0,0-.367-2.57,4.68,4.68,0,0,0-1.92-1.381,3.794,3.794,0,0,0,1.748.336c.729-.076,1.457-.648,1.414-1.357-.041-.676-.706-1.133-1.3-1.486l-1.161-.686a6.04,6.04,0,0,0,.3-.686,4.761,4.761,0,0,0-1.03-5.064c1.268,1.291.944,3.288-.309,4.909-.04.052-.084.1-.126.155l-.744-.44a5.237,5.237,0,0,0-1.981-.827,1.769,1.769,0,0,0-1.831.84c-.314.686.043,1.562-.366,2.2a2.01,2.01,0,0,1-1.818.65,4.12,4.12,0,0,0-2,.166,1.861,1.861,0,0,0-.741,2.384,2.533,2.533,0,0,0,.722.918,33.574,33.574,0,0,0-5.3,1.325,18.733,18.733,0,0,0-5.845,2.611,6.563,6.563,0,0,0-2.845,5.474c.163,2.139,2.288,5.508,4.406,5.166l.322-1.009a6.81,6.81,0,0,1,7.788,1.385c.024-1.347,2.074-1.794,3.1-.916s1.219,2.363,1.3,3.707.154,2.809,1.04,3.823a3.671,3.671,0,0,0,3.558.986,6.827,6.827,0,0,0,3.251-2.015A12.477,12.477,0,0,0,856.006,71.529Z" transform="translate(-657.78 -53.087)" fill="#2f2e41"/>
    <path id="Path_1537" data-name="Path 1537" d="M796.418,343.957a4.674,4.674,0,0,0,6.944-1.772l29.184.577,1.931-6.4-33.592-.6a4.7,4.7,0,0,0-4.468,8.194Z" transform="translate(-632.363 -262.806)" fill="#ffb8b8"/>
    <path id="Path_1538" data-name="Path 1538" d="M892.823,202.314s-6.794.523-6.794,6.4S892.17,235.5,892.17,235.5s-4.442-2.352-4.442,2.09,7.447,17.376,8.231,8.753c0,0,11.236,5.487,10.583-4.834s-7.708-32.14-7.708-32.14S898.049,201.922,892.823,202.314Z" transform="translate(-700.396 -163.921)" fill="#ccc"/>
  </g>
</svg>
