<svg xmlns="http://www.w3.org/2000/svg" width="136.345" height="136.464" viewBox="0 0 136.345 136.464">
  <g id="Group_18" data-name="Group 18" transform="translate(-495.686 -983.916)">
    <path id="Path_1339" data-name="Path 1339" d="M233.076,111.061c0,6.267-11.348,20.228-11.348,20.228s-11.348-13.961-11.348-20.228a11.348,11.348,0,1,1,22.7,0Z" transform="translate(341.049 884.203)" fill="#344dff"/>
    <path id="Path_1340" data-name="Path 1340" d="M270.8,148.423a6.71,6.71,0,1,1-6.71-6.71h0a6.707,6.707,0,0,1,6.71,6.7Z" transform="translate(298.686 846.347)" fill="#fff"/>
    <circle id="Ellipse_16" data-name="Ellipse 16" cx="47.866" cy="47.866" r="47.866" transform="translate(504.88 1024.648)" fill="#344dff"/>
    <path id="Path_1354" data-name="Path 1354" d="M285.241,161.607a51.736,51.736,0,0,0-13.054,0,50.9,50.9,0,0,0-42,35.421,50.209,50.209,0,0,0-2.2,13.069c-.022.616-.036,1.24-.036,1.864a50.818,50.818,0,0,0,50.767,50.767c1.081,0,2.161-.036,3.227-.1a50.212,50.212,0,0,0,7.441-1.03,50.773,50.773,0,0,0-4.141-99.989Zm9.363,97.045H294.6a48.81,48.81,0,0,1-12.655,2.517c-1.066.073-2.147.109-3.227.109A49.377,49.377,0,0,1,229.4,211.961c0-.624.015-1.247.036-1.864a49.316,49.316,0,1,1,65.17,48.555Z" transform="translate(284.185 854.027)" fill="#3f3d56"/>
    <rect id="Rectangle_11" data-name="Rectangle 11" width="1.45" height="10.153" transform="translate(562.175 1019.572)" fill="#3f3d56"/>
    <rect id="Rectangle_12" data-name="Rectangle 12" width="1.45" height="10.153" transform="translate(529.567 1033.679) rotate(-45)" fill="#3f3d56"/>
    <rect id="Rectangle_13" data-name="Rectangle 13" width="1.45" height="10.153" transform="translate(516.485 1066.712) rotate(-90)" fill="#3f3d56"/>
    <rect id="Rectangle_14" data-name="Rectangle 14" width="1.45" height="10.153" transform="translate(530.592 1099.32) rotate(-135)" fill="#3f3d56"/>
    <rect id="Rectangle_15" data-name="Rectangle 15" width="1.45" height="10.153" transform="translate(589.053 1040.858) rotate(-135)" fill="#3f3d56"/>
    <rect id="Rectangle_16" data-name="Rectangle 16" width="1.45" height="10.153" transform="translate(599.162 1066.713) rotate(-90)" fill="#3f3d56"/>
    <rect id="Rectangle_17" data-name="Rectangle 17" width="1.45" height="10.153" transform="translate(588.029 1092.141) rotate(-45)" fill="#3f3d56"/>
    <rect id="Rectangle_18" data-name="Rectangle 18" width="1.45" height="10.153" transform="translate(562.175 1102.249)" fill="#3f3d56"/>
    <path id="Path_1355" data-name="Path 1355" d="M311.887,240.057a3.626,3.626,0,0,0-4.351,0,3.733,3.733,0,0,0-1.037,1.218,3.627,3.627,0,1,0,5.389-1.218Zm-2.176,5.077a2.182,2.182,0,0,1-2.176-2.176,2.215,2.215,0,0,1,.384-1.233,2.174,2.174,0,1,1,1.791,3.409Z" transform="translate(253.188 823.029)" fill="#3f3d56"/>
    <rect id="Rectangle_20" data-name="Rectangle 20" width="4.351" height="24.658" transform="translate(560.724 1038.428)" fill="#3f3d56"/>
    <rect id="Rectangle_21" data-name="Rectangle 21" width="136.345" height="1.45" transform="translate(495.686 1114.544)" fill="#3f3d56"/>
  </g>
</svg>
