<svg xmlns="http://www.w3.org/2000/svg" width="289.251" height="240.887" viewBox="0 0 289.251 240.887">
  <g id="Group_19" data-name="Group 19" transform="translate(-1213 -1182)">
    <path id="Path_1356" data-name="Path 1356" d="M602.725,244.711c12.231-9.035,29.452-12.5,42.926-5.45A70.063,70.063,0,0,0,610.785,272.4c-2.813,5.724-5.345,12.383-11.148,15.029-3.611,1.646-7.872,1.328-11.611,0a46.515,46.515,0,0,1-10.345-5.821l-.984-.118C582.534,267.447,590.493,253.746,602.725,244.711Z" transform="translate(807.471 981.091)" fill="#f0f0f0"/>
    <path id="Path_1357" data-name="Path 1357" d="M645.705,242.163a59.885,59.885,0,0,0-34.686,12.427,25.787,25.787,0,0,0-5.651,5.775,14.791,14.791,0,0,0-2.439,7.393c-.178,2.457-.076,4.991-.849,7.361a9.057,9.057,0,0,1-5.054,5.414c-2.9,1.31-6.1,1.5-9.229,1.578-3.479.086-7.093.121-10.257,1.758-.383.2-.669-.408-.286-.606,5.5-2.85,11.936-.99,17.721-2.686a9.172,9.172,0,0,0,6.26-5.094c.948-2.355.845-4.968,1-7.457a15.782,15.782,0,0,1,2.115-7.317,23.841,23.841,0,0,1,5.408-5.971,58.1,58.1,0,0,1,15.721-9.087,60.946,60.946,0,0,1,20.28-4.155c.43-.013.368.654-.059.668Z" transform="translate(807.307 978.488)" fill="#fff"/>
    <path id="Path_1358" data-name="Path 1358" d="M641.585,251.092a8.985,8.985,0,0,1,2.111-11.441c.335-.271.773.237.437.508a8.32,8.32,0,0,0-1.942,10.647c.217.373-.391.657-.606.286Z" transform="translate(779.806 979.323)" fill="#fff"/>
    <path id="Path_1359" data-name="Path 1359" d="M622.311,284.7a17.317,17.317,0,0,0,12.557-1.265c.384-.2.67.409.286.606a18.012,18.012,0,0,1-13.069,1.29C621.669,285.214,621.9,284.584,622.311,284.7Z" transform="translate(787.852 960.288)" fill="#fff"/>
    <path id="Path_1360" data-name="Path 1360" d="M673.559,245.789a5.086,5.086,0,0,0,3.5,3.325c.417.112.188.742-.226.631a5.7,5.7,0,0,1-3.877-3.67.346.346,0,0,1,.16-.446A.337.337,0,0,1,673.559,245.789Z" transform="translate(765.674 976.706)" fill="#fff"/>
    <path id="Path_1361" data-name="Path 1361" d="M655.687,314.682c-.262-.063-.525-.125-.792-.184a66.984,66.984,0,0,0-10.746-1.6c-.279-.023-.563-.042-.843-.057a70.609,70.609,0,0,0-25.78,3.345,68.567,68.567,0,0,0-9.632,3.972c-4.288,2.163-8.766,4.85-13.382,5.453a11.776,11.776,0,0,1-1.451.115l-17.079-17.971c-.018-.06-.041-.117-.059-.177l-.715-.686c.155-.092.317-.184.471-.276.09-.054.183-.1.272-.157.061-.035.122-.069.175-.1l.057-.031c.053-.035.106-.061.154-.092q1.358-.776,2.732-1.535s0,0,.012,0a100.82,100.82,0,0,1,21.992-9.2c.23-.062.463-.128.7-.182a65.432,65.432,0,0,1,10.511-1.881,57.851,57.851,0,0,1,5.848-.243A48.1,48.1,0,0,1,632.96,295.7c9.529,3.211,17.925,9.434,22.392,18.3C655.466,314.228,655.577,314.451,655.687,314.682Z" transform="translate(808.117 956.036)" fill="#f0f0f0"/>
    <path id="Path_1362" data-name="Path 1362" d="M655.74,322.565A59.885,59.885,0,0,0,620.563,311.6a25.789,25.789,0,0,0-7.989,1.209,14.791,14.791,0,0,0-6.4,4.434c-1.622,1.854-3.065,3.939-5.109,5.367a9.056,9.056,0,0,1-7.3,1.28c-3.1-.7-5.771-2.472-8.319-4.3-2.829-2.026-5.736-4.174-9.248-4.771-.426-.072-.288-.728.136-.656,6.11,1.038,10.127,6.4,15.767,8.524a9.172,9.172,0,0,0,8.066-.3c2.175-1.31,3.666-3.458,5.291-5.35a15.784,15.784,0,0,1,6.094-4.569,23.842,23.842,0,0,1,7.913-1.512,58.1,58.1,0,0,1,18.024,2.21,60.946,60.946,0,0,1,18.694,8.892c.351.248-.1.744-.449.5Z" transform="translate(807.797 948.329)" fill="#fff"/>
    <path id="Path_1363" data-name="Path 1363" d="M661.983,305.584a8.985,8.985,0,0,1,8.574-7.864c.431-.015.474.654.043.669a8.319,8.319,0,0,0-7.96,7.332C662.588,306.149,661.932,306.01,661.983,305.584Z" transform="translate(770.428 954.067)" fill="#fff"/>
    <path id="Path_1364" data-name="Path 1364" d="M630.143,320.139a17.317,17.317,0,0,0,10.788,6.55c.425.074.288.73-.136.656a18.013,18.013,0,0,1-11.212-6.838c-.261-.344.3-.71.56-.368Z" transform="translate(784.529 944.389)" fill="#fff"/>
    <path id="Path_1365" data-name="Path 1365" d="M694.873,319.128a5.086,5.086,0,0,0,.791,4.761c.266.341-.3.706-.56.367a5.7,5.7,0,0,1-.886-5.264.346.346,0,0,1,.4-.26A.337.337,0,0,1,694.873,319.128Z" transform="translate(756.552 944.943)" fill="#fff"/>
    <path id="Path_1366" data-name="Path 1366" d="M524.772,231.589h-1.324V195.331a20.985,20.985,0,0,0-20.986-20.985H425.645a20.985,20.985,0,0,0-20.986,20.985V394.247a20.985,20.985,0,0,0,20.985,20.985h76.819a20.986,20.986,0,0,0,20.986-20.985V257.4h1.323Z" transform="translate(882.195 1007.655)" fill="#3f3d56"/>
    <path id="Path_1367" data-name="Path 1367" d="M507.757,184H497.73a7.446,7.446,0,0,1-6.894,10.258H446.828A7.446,7.446,0,0,1,439.934,184h-9.366A15.672,15.672,0,0,0,414.9,199.669V398.294a15.672,15.672,0,0,0,15.672,15.672h77.189a15.672,15.672,0,0,0,15.672-15.672h0V199.668A15.672,15.672,0,0,0,507.757,184Z" transform="translate(877.749 1003.463)" fill="#fff"/>
    <path id="Path_1368" data-name="Path 1368" d="M480.226,411.3a43.277,43.277,0,1,1,42.689-36.206A43.232,43.232,0,0,1,480.226,411.3Zm0-84.847a41.117,41.117,0,0,0-18.88,4.528,41.608,41.608,0,1,0,18.88-4.528Z" transform="translate(868.168 942.325)" fill="#f0f0f0"/>
    <path id="Path_1369" data-name="Path 1369" d="M340.541,333.306a8.188,8.188,0,0,1,6.8,10.554l14.377,11.976-5.146,10.512-20.066-17.2a8.233,8.233,0,0,1,4.035-15.845Z" transform="translate(914.09 938.641)" fill="#ffb6b6"/>
    <path id="Path_1370" data-name="Path 1370" d="M481.578,393.177c-.288-3.1-1.48-8.672-2.492-10.732-3.109-8.138-23.2-14.827-25.9-15.69l-.684-7.608-27.915-3-3.541,9.729-10.012,3.756a4.917,4.917,0,0,0-2.93,3h0l-8.982,2.6-8.864,2.562-30.794-21.7-1.454.95-9.718,6.341-1.5.979,39.85,35.953,14.8-3.473,11.132-2.619.95,3.858-2.46,13.553a42.411,42.411,0,0,0,54.845,4.384l6.324-5.611a42.36,42.36,0,0,0,9.509-16.7Z" transform="translate(907.329 928.712)" fill="#e4e4e4"/>
    <circle id="Ellipse_17" data-name="Ellipse 17" cx="20.099" cy="20.099" r="20.099" transform="translate(1322.931 1246.791) rotate(-18.319)" fill="#ffb6b6"/>
    <path id="Path_1371" data-name="Path 1371" d="M482.208,266.539a13.566,13.566,0,0,1,8.214-5.471,12.951,12.951,0,0,1,9.551,1.752,19.559,19.559,0,0,1,9.676-1.648,10.316,10.316,0,0,1,7.98,5.25,14.347,14.347,0,0,0,1.153,2.239c1.332,1.777,3.807,2.007,5.992,2.093l-3.316,1.933,3.3,1.54-4.5,1.717c3.489,3.067,4.333,8.526,3.012,13.1-1.251,4.333-4.119,7.98-7.321,11.1-.625-2.33.063-4.856.52-7.268.483-2.549.561-5.529-1.224-7.329a8.319,8.319,0,0,0-4.635-1.875,224.955,224.955,0,0,0-25.39-3.015,7.184,7.184,0,0,0-3.384.346c-2.072.921-2.9,3.449-3.5,5.691a45.126,45.126,0,0,1,.683-11.766A21.556,21.556,0,0,1,482.208,266.539Z" transform="translate(850.244 970.102)" fill="#2f2e41"/>
    <path id="Path_1372" data-name="Path 1372" d="M510.822,509.017H487.065a3.111,3.111,0,0,1,0-6.222h23.757a3.111,3.111,0,0,1,0,6.222Z" transform="translate(847.754 864.992)" fill="#6c63ff"/>
    <path id="Path_1373" data-name="Path 1373" d="M341.712,215.979H276.366a2.273,2.273,0,0,1,0-4.546h65.347a2.273,2.273,0,1,1,0,4.546Z" transform="translate(938.907 991.545)" fill="#6c63ff"/>
    <path id="Path_1374" data-name="Path 1374" d="M379.441,241.643H276.366a2.273,2.273,0,0,1,0-4.545H379.441a2.273,2.273,0,0,1,0,4.545Z" transform="translate(938.907 980.398)" fill="#6c63ff"/>
    <path id="Path_1375" data-name="Path 1375" d="M359.634,265.82H276.367a2.273,2.273,0,1,1,0-4.545h83.267a2.273,2.273,0,1,1,0,4.545Z" transform="translate(938.907 969.897)" fill="#cacaca"/>
    <path id="Path_1376" data-name="Path 1376" d="M323.321,289.909H276.367a2.273,2.273,0,0,1,0-4.545h46.954a2.273,2.273,0,1,1,0,4.545Z" transform="translate(938.907 959.434)" fill="#cacaca"/>
    <path id="Path_1377" data-name="Path 1377" d="M349.258,313.995H276.366a2.273,2.273,0,1,1,0-4.545h72.892a2.273,2.273,0,0,1,0,4.545Z" transform="translate(938.907 948.972)" fill="#cacaca"/>
    <path id="Path_1384" data-name="Path 1384" d="M753.845,412.744l5.1-2.22,6.723,8.243,5.45,26.414-18.666-2.828Z" transform="translate(731.13 905.07)" fill="#e4e4e4"/>
    <path id="Path_1386" data-name="Path 1386" d="M656.5,441.018l6.461-8.39c.053-.12,5.414-12.1,10.06-17.3,4.766-5.339,8.519-2.609,8.556-2.579l.093.07.259,19.717-17.89,21.377Z" transform="translate(772.809 904.42)" fill="#e4e4e4"/>
  </g>
</svg>
