<svg xmlns="http://www.w3.org/2000/svg" width="9.252" height="15.012" viewBox="0 0 9.252 15.012">
  <g id="Layer_2" data-name="Layer 2" transform="translate(-0.001 -0.002)">
    <g id="Layer_1" data-name="Layer 1" transform="translate(0.001 0.002)">
      <path id="Path_288" data-name="Path 288" d="M3.982,7.56l.264.251q2.244,2.175,4.486,4.35a1.583,1.583,0,0,1,.419,1.746,1.647,1.647,0,0,1-2.714.633c-.447-.428-.89-.863-1.336-1.294L.545,8.827A1.655,1.655,0,0,1,.5,6.418L6.205.525A1.581,1.581,0,0,1,7.849.071,1.562,1.562,0,0,1,9.013,1.287a1.59,1.59,0,0,1-.428,1.535Q6.342,5.143,4.1,7.462A1.479,1.479,0,0,1,3.982,7.56Z" transform="translate(-0.001 -0.002)" fill="#fff"/>
    </g>
  </g>
</svg>
