<svg xmlns="http://www.w3.org/2000/svg" width="110" height="50.045" viewBox="0 0 110 50.045">
  <g id="Group_38" data-name="Group 38" transform="translate(-30 -30)">
    <g id="Group_37" data-name="Group 37" transform="translate(80.369 45.097)">
      <path id="Path_1" data-name="Path 1" d="M338.073,279.989,330.9,261.524a3.5,3.5,0,0,1,.833-.3,4.132,4.132,0,0,1,.974-.127,2.919,2.919,0,0,1,3.106,1.948l4.066,11.406-.706,1.92.339.141,4.856-13.467a2.976,2.976,0,0,1,3.105-1.948,4.139,4.139,0,0,1,.974.127,3.524,3.524,0,0,1,.833.3l-7.143,18.464a2.185,2.185,0,0,1-4.066,0Z" transform="translate(-330.902 -261.101)" fill="#3c7bee"/>
      <path id="Path_2" data-name="Path 2" d="M452.191,264.467a1.743,1.743,0,0,1,.607-1.341,2.127,2.127,0,0,1,1.482-.55H466.9a4.647,4.647,0,0,1-.621,2.71,2.32,2.32,0,0,1-2,.847h-7.933v4.461h7.4a4.646,4.646,0,0,1-.621,2.71,2.32,2.32,0,0,1-2,.847h-4.771v4.63h8.526a2.286,2.286,0,0,1,1.976.847,4.645,4.645,0,0,1,.621,2.71H454.28a2.159,2.159,0,0,1-1.482-.536,1.729,1.729,0,0,1-.607-1.355Z" transform="translate(-431.271 -262.321)" fill="#3c7bee"/>
      <path id="Path_3" data-name="Path 3" d="M548.11,280.3l6.663-9.345-6.352-9.063a2.28,2.28,0,0,1,.946-.579,3.777,3.777,0,0,1,1.256-.212,4.671,4.671,0,0,1,1.68.3,2.063,2.063,0,0,1,1.059.748l3.473,5.421-.819,1.158.311.226,4.489-6.8a2.06,2.06,0,0,1,1.059-.748,4.667,4.667,0,0,1,1.68-.3,3.781,3.781,0,0,1,1.256.212,2.282,2.282,0,0,1,.946.579l-6.352,9.063,8.521,11.932c2.2,3,4.785,4.452-2.15.492-.9-.513-3.942-2.374-4.45-3.107l-4.235-6.3-4.235,6.3a2.323,2.323,0,0,1-.96.8,3.271,3.271,0,0,1-3.783-.776Z" transform="translate(-510.646 -261.101)" fill="#3c7bee"/>
      <line id="Line_1" data-name="Line 1" x2="46.929" transform="translate(5.389 22.523)" fill="none" stroke="#3c7bee" stroke-miterlimit="10" stroke-width="2"/>
      <text id="Trading" transform="translate(14.234 28.735)" fill="#3c7bee" font-size="6" font-family="K2D-Medium, K2D" font-weight="500"><tspan x="0" y="0">Trading</tspan></text>
    </g>
    <path id="Path_4" data-name="Path 4" d="M62.244,198a16.837,16.837,0,0,0,.086-3.191,5.109,5.109,0,0,0-4.9-4.323c-4.2-.092-8.4-.025-12.879-.025,1.109,1.112,2.048,2.086,3.035,3.008.161.15.536.093.812.094,2.827.006,5.653,0,8.48.006a2.256,2.256,0,0,1,2.536,2.278,2.286,2.286,0,0,1-2.514,2.23c-1.817.015-3.635,0-5.734,0,1.065,1.092,1.951,2.034,2.885,2.925.164.156.53.136.8.137,1.664.012,3.329-.006,4.994.01a2.267,2.267,0,1,1-.036,4.515q-9.794.007-19.587-.007a1.219,1.219,0,0,1-.263-.057,24.825,24.825,0,1,1,1.154,3.189c.366-.016.685-.043,1-.043q8.8,0,17.595.015a5.2,5.2,0,0,0,5.057-2.975,5.743,5.743,0,0,0-.487-6.072A9.893,9.893,0,0,0,62.244,198Z" transform="translate(-8.876 -143.571)" fill="#3c7bee"/>
    <path id="Path_5" data-name="Path 5" d="M208.291,277.249a1.988,1.988,0,0,1,0-2.913,2.51,2.51,0,0,1,3.162,0,1.988,1.988,0,0,1,0,2.913,2.51,2.51,0,0,1-3.162,0Zm-.137,3.5a1.606,1.606,0,0,1,.846-1.531,5.544,5.544,0,0,1,2.564-.46v10.9a1.605,1.605,0,0,1-.846,1.531,5.544,5.544,0,0,1-2.564.461Z" transform="translate(-148.545 -226.492)" fill="#fff"/>
    <path id="Path_6" data-name="Path 6" d="M250.3,296.883a4.759,4.759,0,0,1-.987-3.111V288.02h-2.617a3.087,3.087,0,0,1,.469-1.876,1.477,1.477,0,0,1,1.234-.617h.963v-1.95a1.6,1.6,0,0,1,.815-1.518,5.2,5.2,0,0,1,2.469-.457v3.925h3.284a2.948,2.948,0,0,1-.494,1.913,2.034,2.034,0,0,1-1.629.58h-1.111v5.629a1.736,1.736,0,0,0,.321,1.173,1.438,1.438,0,0,0,1.111.358,3.727,3.727,0,0,0,1.778-.494,1.778,1.778,0,0,1,.432.617,1.85,1.85,0,0,1,.161.741,1.606,1.606,0,0,1-.346.963,2.522,2.522,0,0,1-1.049.778,4.265,4.265,0,0,1-1.716.309A3.751,3.751,0,0,1,250.3,296.883Z" transform="translate(-180.848 -232.968)" fill="#fff"/>
    <path id="Path_7" data-name="Path 7" d="M49.756,271.479l3.08,3.041.227.064h9.22l.413.056.452.116.407.182.356.25.285.3.216.356.139.4.057.342v.387l-.04.359-.092.319-.168.35-.21.288-.307.287-.4.242-.343.136-.456.105-.432.037-5.793,0,2.885,2.925.092.061.22.059,5.809.046.432.078.3.1.218.1.234.136.267.209.237.258.2.322.17.455.068.474-.022.464-.113.45-.226.442-.331.383-.41.293-.547.226-.445.09-20.246-.04,1.154,3.189,19.356-.063.434-.056.609-.131.577-.192.851-.437.595-.454.53-.558.476-.687.365-.725.3-.836.162-.786.05-.664-.03-.664-.095-.582-.166-.6-.28-.686L69.66,281l-.3-.423-.349-.366-.295-.251-.375-.283-.385-.274-.512-.383.146-2.165-.019-.686-.078-.555-.121-.48-.128-.37-.252-.549-.335-.544-.256-.333-.336-.366-.535-.46-.646-.412-.481-.226-.433-.154L63.5,271.6l-.416-.064-.445-.03Z" transform="translate(-14.08 -224.591)" fill="#fff"/>
  </g>
</svg>
