<svg xmlns="http://www.w3.org/2000/svg" width="39.034" height="39.034" viewBox="0 0 39.034 39.034">
  <g id="Group_228" data-name="Group 228" transform="translate(-71.278 -503.962)">
    <path id="Path_1482" data-name="Path 1482" d="M1667.05,418.094h1.138c.074.034.152.008.227.016.076-.008.154.018.228-.016h.065c.288.036.579.035.869.044a11.365,11.365,0,0,1,1.892.251,19.021,19.021,0,0,1,2.506.68,19.494,19.494,0,0,1,4.618,2.313,20.093,20.093,0,0,1,2.13,1.673q.658.593,1.261,1.242a19.376,19.376,0,0,1,2.668,3.627,19.613,19.613,0,0,1,1.646,3.756,17.872,17.872,0,0,1,.771,3.581,13.513,13.513,0,0,1,.058,1.452v1.813a15.5,15.5,0,0,1-.648,4.427,19.2,19.2,0,0,1-1.355,3.475,19.538,19.538,0,0,1-2.577,3.87,19.531,19.531,0,0,1-5.386,4.434,19.552,19.552,0,0,1-3.6,1.563,17.577,17.577,0,0,1-3.581.774,13.6,13.6,0,0,1-1.45.058h-1.851a15.5,15.5,0,0,1-4.52-.681,19.227,19.227,0,0,1-3.727-1.51,19.621,19.621,0,0,1-5.206-4.021,19.018,19.018,0,0,1-2.623-3.561,19.462,19.462,0,0,1-1.7-3.858,18.231,18.231,0,0,1-.742-3.423c-.042-.383-.043-.771-.057-1.158,0-.058.018-.119-.015-.174v-.1c.034-.074.008-.152.016-.227-.008-.076.018-.154-.016-.228v-1.138a.7.7,0,0,0,.016-.232v-.341a13.814,13.814,0,0,1,.384-3.209,20.228,20.228,0,0,1,1.369-3.97,19.619,19.619,0,0,1,2.453-3.932c.33-.415.688-.806,1.049-1.195a19.345,19.345,0,0,1,3.657-3.049,18.875,18.875,0,0,1,3.074-1.613,20.03,20.03,0,0,1,3.947-1.176,11.5,11.5,0,0,1,1.943-.209c.162,0,.324-.013.486-.014h.342A.7.7,0,0,0,1667.05,418.094Z" transform="translate(-1576.816 85.868)" fill="#3d7df2"/>
    <path id="Path_1493" data-name="Path 1493" d="M1730.915,517.678a16.827,16.827,0,1,1,16.759,16.828A16.85,16.85,0,0,1,1730.915,517.678Z" transform="translate(-1656.944 5.802)" fill="#fdfdfd"/>
    <g id="Group_226" data-name="Group 226" transform="translate(80.677 516.198)">
      <path id="Path_1494" data-name="Path 1494" d="M1958.687,794.376l-1.241,1.038-7.988,6.66c-.25.208-.5.411-.747.626-.087.077-.138.075-.228,0q-2.059-1.654-4.124-3.3l-6.145-4.909c-.041-.033-.081-.067-.143-.118Z" transform="translate(-1938.04 -794.376)" fill="#3d7df2"/>
      <path id="Path_1495" data-name="Path 1495" d="M1974.58,1015.075h-19.611c.172-.185.323-.35.476-.513q3.028-3.228,6.053-6.458c.109-.117.167-.073.258,0q1.54,1.234,3.081,2.468a.154.154,0,0,0,.24,0c.949-.8,1.9-1.589,2.854-2.387.092-.077.135-.076.218.012q2.412,2.581,4.831,5.156l1.489,1.587C1974.5,1014.975,1974.529,1015.014,1974.58,1015.075Z" transform="translate(-1954.389 -1001.084)" fill="#3d7df2"/>
      <path id="Path_1496" data-name="Path 1496" d="M1937.124,842.45v-12.1c.059-.008.083.034.115.059q3.129,2.5,6.26,5c.116.092.122.143.02.251q-3.15,3.346-6.294,6.7C1937.2,842.38,1937.172,842.4,1937.124,842.45Z" transform="translate(-1937.124 -829.179)" fill="#3d7df2"/>
      <path id="Path_1497" data-name="Path 1497" d="M2386.243,829.243v12.07c-.308-.327-.6-.632-.881-.937q-2.672-2.85-5.347-5.7c-.109-.116-.106-.164.017-.266q3.051-2.532,6.092-5.074C2386.156,829.311,2386.189,829.286,2386.243,829.243Z" transform="translate(-2365.536 -828.109)" fill="#3d7df2"/>
    </g>
  </g>
</svg>
