<svg xmlns="http://www.w3.org/2000/svg" width="47.425" height="55.084" viewBox="0 0 47.425 55.084">
  <g id="Group_577" data-name="Group 577" transform="translate(-16.079 -12.865)">
    <path id="Path_2024" data-name="Path 2024" d="M50.089,74.6v7.264l-4.257-4.1-.4-.613a4.3,4.3,0,0,0-.012-3.072,2.336,2.336,0,0,0-3.7-.948c.407-.046.753-.107,1.1-.121a2.183,2.183,0,0,1,2.4,2.137c.036.624.017,1.251.024,1.876a1.505,1.505,0,0,1-.621-.619,7.5,7.5,0,0,0-.071-1.351A1.447,1.447,0,0,0,42.239,74l-.864-.81q0-11.458-.006-22.917c0-.5-.1-1.042.691-.952l.4,0c2.575.013,5.15.039,7.726.027a1.527,1.527,0,0,1,1.207.5C52.92,51.4,54.49,52.916,56,54.49c.515.539.828.558,1.417.065q9.61-8.032,19.27-16.005c.2-.165.4-.326.61-.493.264.291.153.6.153.879.006,9.149,0,18.3.017,27.448a1.623,1.623,0,0,1-.723,1.474c-1.847,1.385-3.652,2.825-5.473,4.244l-.271.218-1.037.8,0,0-1.7,1.309c-.906-.126-.541-.706-.429-1.2.225,1.092.225,1.092-.35,1.6a17.044,17.044,0,0,1-.015-3.033c.56-.029,1.015-.72,1.367-.628.89.234.9-.375,1.058-.837a2.482,2.482,0,0,0-2.432-3.3v-10c-.472-.15-.617.24-.828.433-3.217,2.939-6.439,5.872-9.613,8.857-.575.541-.8.453-1.266-.1-1.765-2.086-3.589-4.123-5.616-6.436V72.592c-.46,0-.921-.02-1.379.006a1.523,1.523,0,0,0-1.5,1.073,7.824,7.824,0,0,0-.267,3.961.739.739,0,0,0,.833.633c.408-.015.6-.368.6-.769.012-.624,0-1.247.006-1.872C48.424,74.145,48.827,73.9,50.089,74.6Z" transform="translate(-13.965 -13.913)" fill="#010101"/>
    <path id="Path_2025" data-name="Path 2025" d="M23.932,71.078c-.9-1-1.771-2.021-2.7-2.989C19.7,66.5,18.136,64.934,16.576,63.37a1.355,1.355,0,0,1-.5-1.021c.033-7.1.07-14.2.05-21.306,0-.95.242-1.21,1.2-1.208q19.526.047,39.052.025a1.515,1.515,0,0,1,1.065.2l-3.206,2.487c-1.9,1.474-3.827,2.925-5.7,4.435a2.81,2.81,0,0,1-1.907.617c-7-.014-14.009.012-21.013-.029-.992-.006-1.288.241-1.281,1.262.043,6.971.019,13.942.017,20.913v1.062Z" transform="translate(0 -14.895)" fill="#3d7df2"/>
    <path id="Path_2026" data-name="Path 2026" d="M39.839,20.621h-22.3c-1.3,0-1.306,0-1.311-1.356-.006-1.85.011-3.7-.014-5.551-.009-.617.149-.844.838-.843q22.8.028,45.6-.007c.617,0,.9.141.891.814-.029,2.048-.039,4.1,0,6.145.016.8-.418.8-1,.8q-11.35-.015-22.7-.007Z" transform="translate(-0.071)" fill="#3d7df2"/>
    <path id="Path_2027" data-name="Path 2027" d="M99.466,107.565l-.1-.2.094-.395a1.224,1.224,0,0,0,1-1.37c-.007-.7-.438-.891-.992-1q-.07-.492-.14-.983l.133-.812a2.482,2.482,0,0,1,2.432,3.3c-.159.463-.169,1.071-1.058.837C100.48,106.845,100.026,107.537,99.466,107.565Zm1.764-1.295a1.834,1.834,0,0,0-.523-2.3c-.435-.349-.635-.364-1.2-.071C100.936,104.1,101.123,105.138,101.229,106.27Z" transform="translate(-45.975 -49.67)" fill="#1e1e1e"/>
    <path id="Path_2028" data-name="Path 2028" d="M56.822,117.185c-1.262-.7-1.665-.453-1.669,1.027,0,.624.006,1.248-.006,1.872-.008.4-.195.754-.6.769a.739.739,0,0,1-.833-.633,7.825,7.825,0,0,1,.267-3.961,1.523,1.523,0,0,1,1.5-1.073c.458-.026.919-.006,1.379-.006l-.017.416c-1.641-.013-2.517.4-2.641,1.419a23.893,23.893,0,0,0-.039,2.867c0,.2.038.428.309.4s.261-.26.264-.456c.007-.561,0-1.122.006-1.683.011-1.725.582-2.147,2.126-1.573A.8.8,0,0,1,56.822,117.185Z" transform="translate(-20.697 -56.5)" fill="#1e1e1e"/>
    <path id="Path_2029" data-name="Path 2029" d="M57.583,117.091c-1.544-.574-2.115-.152-2.126,1.573,0,.561,0,1.122-.006,1.683,0,.2,0,.431-.264.456s-.309-.2-.309-.4a23.893,23.893,0,0,1,.039-2.867c.124-1.017,1-1.431,2.641-1.419l.1.386v.2Z" transform="translate(-21.414 -57.022)" fill="#010101"/>
    <path id="Path_2030" data-name="Path 2030" d="M99.4,108.788l.108-1.976c.554.112.985.307.992,1a1.224,1.224,0,0,1-1,1.37Z" transform="translate(-46.014 -51.883)" fill="#010101"/>
    <path id="Path_2031" data-name="Path 2031" d="M45.868,119.68l-.18-.128c-.006-.625.012-1.252-.024-1.876a2.183,2.183,0,0,0-2.4-2.137c-.347.013-.694.075-1.1.121a2.336,2.336,0,0,1,3.7.948A4.3,4.3,0,0,1,45.868,119.68Z" transform="translate(-14.403 -56.447)" fill="#1e1e1e"/>
    <path id="Path_2032" data-name="Path 2032" d="M43.715,118.436l-.4-.426a1.447,1.447,0,0,1,2.319,1.045,7.5,7.5,0,0,1,.071,1.351,1.655,1.655,0,0,1-.618-.6c.49-.5.117-.934-.18-1.293A.734.734,0,0,0,43.715,118.436Z" transform="translate(-15.043 -57.921)" fill="#1e1e1e"/>
    <path id="Path_2033" data-name="Path 2033" d="M44.205,118.954a.734.734,0,0,1,1.194.075c.3.36.671.788.18,1.293Z" transform="translate(-15.533 -58.439)" fill="#010101"/>
    <path id="Path_2034" data-name="Path 2034" d="M101.45,107.364c-.106-1.132-.294-2.17-1.724-2.373.565-.294.766-.278,1.2.071A1.834,1.834,0,0,1,101.45,107.364Z" transform="translate(-46.195 -50.763)" fill="#010101"/>
  </g>
</svg>
