<svg xmlns="http://www.w3.org/2000/svg" width="146.245" height="36.306" viewBox="0 0 146.245 36.306">
  <g id="Group_576" data-name="Group 576" transform="translate(-3937.454 35.656)">
    <path id="Path_2015" data-name="Path 2015" d="M181.222,19.655C195.653,17.783,195.717,3,195.717,3c-.634,2.113-2.112,2.318-9.63,4.012a23.885,23.885,0,0,0-12.053,7.155c-22.463-18-41.773,1.6-41.773,1.6A27.416,27.416,0,0,0,145.7,23.084c-.888,1.525-1.827,3.651-.723,4.431,1.269.892,4.739-1.85,6.6-3.495.558.044,1.117.084,1.675.111,1.071,1.511,3.73,5.483,3.724,7.841,0,0,6.128-.33,5.354-8.18a61.65,61.65,0,0,0,11.273-2.359s-.634,12.246,4.441,12.889S188.1,39.306,188.1,39.306C195.634,28.977,181.222,19.655,181.222,19.655Z" transform="translate(3887.982 -38.656)" fill="#fff" style="isolation: isolate"/>
    <path id="Path_2016" data-name="Path 2016" d="M21.741,7.419v3.1H13.752v4.914h6.122v3.047H13.752v8.1H9.909V7.419Z" transform="translate(3927.545 -39.261)" fill="#fff"/>
    <path id="Path_2017" data-name="Path 2017" d="M31.476,7.787A2.132,2.132,0,0,1,30.8,6.181a2.135,2.135,0,0,1,.673-1.606,2.533,2.533,0,0,1,3.377,0,2.137,2.137,0,0,1,.673,1.606,2.135,2.135,0,0,1-.673,1.606,2.531,2.531,0,0,1-3.377,0Zm3.583,2.457V25.453H31.215V10.244Z" transform="translate(3920.789 -38.133)" fill="#fff"/>
    <path id="Path_2018" data-name="Path 2018" d="M44.768,27.926A5.915,5.915,0,0,1,42.421,26.1a4.621,4.621,0,0,1-.947-2.553h3.87A2.107,2.107,0,0,0,46.209,25a3.008,3.008,0,0,0,1.881.576,2.918,2.918,0,0,0,1.715-.439,1.328,1.328,0,0,0,.618-1.125,1.188,1.188,0,0,0-.755-1.112,14.24,14.24,0,0,0-2.4-.809,20.374,20.374,0,0,1-2.786-.851A4.825,4.825,0,0,1,42.613,19.9a3.61,3.61,0,0,1-.783-2.443,3.942,3.942,0,0,1,.727-2.306A4.884,4.884,0,0,1,44.645,13.5a7.821,7.821,0,0,1,3.2-.6,6.532,6.532,0,0,1,4.338,1.359,5.034,5.034,0,0,1,1.784,3.665H50.286a1.991,1.991,0,0,0-.754-1.441,3.4,3.4,0,0,0-3.4-.151,1.225,1.225,0,0,0-.563,1.07,1.257,1.257,0,0,0,.769,1.167,11.892,11.892,0,0,0,2.389.81,20.267,20.267,0,0,1,2.717.851,4.8,4.8,0,0,1,1.853,1.359,3.737,3.737,0,0,1,.81,2.43,4.033,4.033,0,0,1-.727,2.361,4.8,4.8,0,0,1-2.087,1.633,7.912,7.912,0,0,1-3.171.59A8.016,8.016,0,0,1,44.768,27.926Z" transform="translate(3917.339 -41.032)" fill="#fff"/>
    <path id="Path_2019" data-name="Path 2019" d="M76.442,11.357a5.2,5.2,0,0,1,2.1,2.223,7.632,7.632,0,0,1,.755,3.527V26.03H75.454v-8.4a3.942,3.942,0,0,0-.906-2.786,3.209,3.209,0,0,0-2.47-.974,3.286,3.286,0,0,0-2.512.974,3.9,3.9,0,0,0-.92,2.786v8.4H64.8V5.715h3.843v7a5.017,5.017,0,0,1,1.976-1.552,6.552,6.552,0,0,1,2.746-.562A6.169,6.169,0,0,1,76.442,11.357Z" transform="translate(3909.795 -38.71)" fill="#fff"/>
    <path id="Path_2020" data-name="Path 2020" d="M122.167,7.419V26.581h-3.844V14.118L113.19,26.581h-2.91l-5.161-12.463V26.581h-3.844V7.419h4.365l6.095,14.248,6.095-14.248Z" transform="translate(3898.001 -39.261)" fill="#fff"/>
    <path id="Path_2021" data-name="Path 2021" d="M142.694,16.456a4.46,4.46,0,0,1,1.655-1.819A4.405,4.405,0,0,1,146.685,14a4.1,4.1,0,0,1,1.973.455,4.009,4.009,0,0,1,1.355,1.146V14.164h2.564V24.239h-2.564V22.766a3.791,3.791,0,0,1-1.355,1.173,4.144,4.144,0,0,1-1.991.464,4.274,4.274,0,0,1-2.318-.655,4.576,4.576,0,0,1-1.655-1.846,5.919,5.919,0,0,1-.61-2.737A5.824,5.824,0,0,1,142.694,16.456Zm6.956,1.154a2.566,2.566,0,0,0-.982-1.018,2.627,2.627,0,0,0-1.328-.355,2.558,2.558,0,0,0-2.282,1.355,3.161,3.161,0,0,0-.373,1.573,3.26,3.26,0,0,0,.373,1.591,2.687,2.687,0,0,0,.982,1.046,2.5,2.5,0,0,0,1.3.363,2.627,2.627,0,0,0,1.328-.355,2.561,2.561,0,0,0,.982-1.018,3.661,3.661,0,0,0,0-3.183Z" transform="translate(3884.806 -41.389)" fill="#3d7df2"/>
    <path id="Path_2022" data-name="Path 2022" d="M167.529,13.226a4.424,4.424,0,0,1,2.248-.565v3.322h-.836a3.2,3.2,0,0,0-2.249.7,3.228,3.228,0,0,0-.757,2.44V25.36h-3.163V12.842h3.163v1.943A4.439,4.439,0,0,1,167.529,13.226Z" transform="translate(3878.116 -40.956)" fill="#3d7df2"/>
    <path id="Path_2023" data-name="Path 2023" d="M185.546,12.883V18.1a1.029,1.029,0,0,0,.263.788,1.288,1.288,0,0,0,.885.243h1.265v2.3h-1.712q-3.445,0-3.445-3.347v-5.2h-1.284V10.645H182.8V7.979h2.744v2.666h2.413v2.238Z" transform="translate(3868.68 -37.022)" fill="#3d7df2"/>
  </g>
</svg>
