<svg xmlns="http://www.w3.org/2000/svg" width="22.957" height="22.188" viewBox="0 0 22.957 22.188">
  <g id="Group_15" data-name="Group 15" transform="translate(-29.6 -429.176)">
    <path id="Path_290" data-name="Path 290" d="M9.672,114.75a5.275,5.275,0,0,1-2.791,1.2c-.055.007-.106.057-.158.087H5.144c-.417-.125-.839-.231-1.248-.378a6.044,6.044,0,0,1-3.885-6.032A5.983,5.983,0,0,1,4.4,104.32a5.54,5.54,0,0,1,4.812.79.557.557,0,0,0,.375.076v9.053C9.587,114.4,9.523,114.6,9.672,114.75Zm-1.765-4.673a1.925,1.925,0,0,0-3.85-.035,2.16,2.16,0,0,0,1.666,2.031A2.085,2.085,0,0,0,7.907,110.077Z" transform="translate(36.411 545.602) rotate(-172)" fill="#3d7df2"/>
    <path id="Path_291" data-name="Path 291" d="M97.04,20.892c-.149-.152-.085-.343-.085-.515q-.008-4.529,0-9.06c1.4-1.409,2.789-2.826,4.2-4.22.272-.269.259-.41-.012-.648-.381-.336-.729-.709-1.086-1.072a.98.98,0,0,1-.1-1.438.969.969,0,0,1,1.4.106c.387.379.778.755,1.143,1.155.2.222.325.23.544.01s.258-.373,0-.576a2.383,2.383,0,0,1-.414-.421.934.934,0,0,1,.111-1.25.894.894,0,0,1,1.207-.023,2.339,2.339,0,0,1,.385.38c.222.3.385.213.612-.012.209-.208.178-.321-.018-.5-.373-.346-.725-.715-1.086-1.076-.691-.691-.62-1.263.217-1.771h.494a9.977,9.977,0,0,1,1.7,1.551c.267.244.515.507.769.766a.968.968,0,0,1-.007,1.579q-3.4,3.408-6.8,6.811c-.571.57-1.127,1.153-1.715,1.7-.247.231-.28.376-.082.691A5.979,5.979,0,0,1,97.04,20.892Z" transform="translate(135.991 464.817) rotate(-172)" fill="#3d7df2"/>
    <path id="Path_292" data-name="Path 292" d="M44.919,146.927a2.085,2.085,0,0,1-2.183,2,2.156,2.156,0,0,1-1.666-2.031,1.925,1.925,0,1,1,3.85.035Z" transform="translate(67.935 587.244) rotate(-172)" fill="#fff"/>
  </g>
</svg>
