<svg xmlns="http://www.w3.org/2000/svg" width="41.311" height="41.311" viewBox="0 0 41.311 41.311">
  <g id="Group_226" data-name="Group 226" transform="translate(-43.873 -280.141)">
    <path id="Path_1453" data-name="Path 1453" d="M1593.915,484.1h.516c.525.07,1.055.066,1.582.109a12.993,12.993,0,0,1,2.61.555,20.432,20.432,0,0,1,7.619,4.135,20.812,20.812,0,0,1,5.495,7.269,18.629,18.629,0,0,1,1.515,4.946c.087.588.088,1.185.125,1.779.005.083-.028.172.031.249v.452a1.291,1.291,0,0,0-.032.438v1.446a1.309,1.309,0,0,0,.032.44v.516c-.09.651-.057,1.312-.156,1.961a18.667,18.667,0,0,1-1.31,4.473,20.275,20.275,0,0,1-3.379,5.421,20.78,20.78,0,0,1-8.839,6.1,17.351,17.351,0,0,1-3.331.868c-.589.085-1.186.088-1.779.125-.083.005-.172-.028-.249.031h-.516c-.122-.066-.254-.017-.38-.032h-1.44a1.3,1.3,0,0,0-.439.032h-.516c-.651-.09-1.312-.058-1.961-.155a18.5,18.5,0,0,1-4.5-1.324,20.1,20.1,0,0,1-5.3-3.277,21.675,21.675,0,0,1-3.678-4.041,21.126,21.126,0,0,1-2.648-5.25,14.461,14.461,0,0,1-.856-4.746.16.16,0,0,0-.032-.12v-.516c.068-.126.016-.263.032-.393-.016-.148.036-.3-.032-.446v-.775c.068-.144.016-.3.032-.445-.016-.131.036-.267-.032-.394v-.516c.076-.492.07-.989.106-1.484a12.065,12.065,0,0,1,.489-2.426,20.466,20.466,0,0,1,2.775-5.968,21.235,21.235,0,0,1,5.3-5.4,20.4,20.4,0,0,1,8-3.426,18.647,18.647,0,0,1,2.031-.172c.073-.006.151.024.217-.032h.516c.126.068.263.016.393.032.148-.016.3.036.446-.032h.775a1.292,1.292,0,0,0,.438.032C1593.691,484.115,1593.808,484.164,1593.915,484.1Z" transform="translate(-1528.225 -203.957)" fill="#3d7df2"/>
    <path id="Path_1468" data-name="Path 1468" d="M1749.46,672.615q-.383,1.771-.765,3.542c-.02.094-.036.189-.054.284a.2.2,0,0,1-.05.248q-.365,1.713-.729,3.425a1.439,1.439,0,0,0-.012.223c-.052.087.011.2-.068.281-.255,1.181-.517,2.361-.761,3.544a1.327,1.327,0,0,1-.612.893c-.044.028-.115.011-.174.015a.39.39,0,0,1-.442-.02c-.369-.007-.563-.314-.826-.5-.719-.5-1.425-1.011-2.128-1.529-.591-.435-1.17-.885-1.757-1.325-.122-.091-.256-.165-.379-.255a.174.174,0,0,0-.257.012c-.362.393-.785.723-1.159,1.106-.491.5-1.033.959-1.57,1.415a.754.754,0,0,1-1.005-.251c-.322-.738-.527-1.518-.786-2.278q-.58-1.706-1.124-3.424a.464.464,0,0,0-.374-.342c-.6-.138-1.187-.326-1.766-.509-.917-.291-1.831-.6-2.751-.882-.257-.079-.327-.272-.448-.449a.527.527,0,0,1,.033-.5,1.081,1.081,0,0,1,.558-.411q9.616-3.573,19.229-7.152c.6-.223.987.026,1.035.656a.2.2,0,0,1-.049.248q-.366,1.713-.731,3.426a1.426,1.426,0,0,0-.012.223C1749.475,672.419,1749.537,672.534,1749.46,672.615Z" transform="translate(-1675.386 -375.704)" fill="#fefefe"/>
    <path id="Path_1475" data-name="Path 1475" d="M1831.516,725.035q-.514-1.645-1.027-3.291c-.082-.264-.161-.53-.241-.795a.417.417,0,0,1,.106-.281c.914-.593,1.825-1.189,2.742-1.778.971-.624,1.947-1.242,2.921-1.861q2.194-1.395,4.39-2.787a1.377,1.377,0,0,1,.229-.113c.1-.039.17.027.224.088.071.081.024.159-.045.222-.432.4-.85.815-1.3,1.19-.294.245-.573.507-.855.761-.891.807-1.787,1.609-2.676,2.418-.567.516-1.137,1.03-1.7,1.551-.764.708-1.554,1.389-2.333,2.082-.112.115-.072.249-.049.381l-.045.209a.484.484,0,0,0-.019.371.4.4,0,0,1-.042.266.849.849,0,0,0-.024.509l-.044.21a.487.487,0,0,0-.019.371.5.5,0,0,1-.041.284A.918.918,0,0,1,1831.516,725.035Z" transform="translate(-1769.707 -419.126)" fill="#3d7df2"/>
  </g>
</svg>
