<svg xmlns="http://www.w3.org/2000/svg" width="28" height="28" viewBox="0 0 28 28">
  <g id="Group_34" data-name="Group 34" transform="translate(-330 -22)">
    <g id="Layer_2" data-name="Layer 2" transform="translate(336 25.997)">
      <g id="Layer_1" data-name="Layer 1" transform="translate(0 0.003)">
        <path id="Path_289" data-name="Path 289" d="M5.361,18.789H2.515l-.779-.081-.131-.045-.548-.3c-.3-.341-.7-.6-.8-1.088q-.1-.4-.205-.8L0,15.8.007,15l.1-.681c.061-.26.121-.52.183-.78a10,10,0,0,1,.556-1.362A8.008,8.008,0,0,1,3.814,9.23c.393-.22.341-.4.049-.664-.268-.238-.632-.405-.681-.825l-.415-.8Q2.582,6.2,2.393,5.47V4.789l.114-.795.578-1.476C3.382,1.723,4.1,1.34,4.7.833L5.269.507,5.478.432,6.171.169A8.106,8.106,0,0,1,8.421.016l.691.167L9.855.41h.014a1.967,1.967,0,0,0,.706.42.5.5,0,0,0,.317.227l.252.218A6.934,6.934,0,0,1,12.27,2.657L12.76,4l.114.795v.681l-.1.579A8.1,8.1,0,0,1,12.147,7.6c-.246.585-.795.9-1.249,1.37l.579.262.568.349,1.268,1.094.114.128.991,1.4c.106.463.507.816.495,1.324q.114.4.234.795.053.341.1.681l.007.795c-.022.227-.042.445-.064.668l-.215.795a3.661,3.661,0,0,1-1.572,1.571c-.227.033-.44-.15-.672-.048H5.363Zm5.222-.929H12.74c.807-.008,1.234-.4,1.5-1.371a4.325,4.325,0,0,0-.035-2.164,1.307,1.307,0,0,0-.193-.681A6.248,6.248,0,0,0,9.9,9.558l-.438-.341c-.043-.367.208-.519.471-.681a3.829,3.829,0,0,0,1.8-2.264,1.53,1.53,0,0,0,.185-.795l.011-.681A1.589,1.589,0,0,0,11.809,4a3.977,3.977,0,0,0-2.7-2.828.061.061,0,0,0-.079-.024,3.947,3.947,0,0,0-2.873.022,1.283,1.283,0,0,0-.689.309.975.975,0,0,0-.44.269A4.129,4.129,0,0,0,3.45,4.006a1.509,1.509,0,0,0-.114.795q0,.341,0,.681a1.522,1.522,0,0,0,.192.795A3.747,3.747,0,0,0,5.357,8.536a.152.152,0,0,0,.094.059.753.753,0,0,1,.368.519.923.923,0,0,1-.462.454,3.527,3.527,0,0,0-1.371.647,1.7,1.7,0,0,0-.672.486l-.123.091a1.957,1.957,0,0,0-.6.578l-.081.1a1.394,1.394,0,0,0-.454.568,3.86,3.86,0,0,0-.769,1.5,1.878,1.878,0,0,0-.227.795,1.172,1.172,0,0,0-.106.577,5.753,5.753,0,0,0,0,1.348.234.234,0,0,0,.067.234c.174.979.627,1.391,1.5,1.371h.681a2.3,2.3,0,0,0,.795,0h.681a2.271,2.271,0,0,0,.795,0h.681a2.271,2.271,0,0,0,.795,0h.681a2.181,2.181,0,0,0,.795,0H9.11a2.181,2.181,0,0,0,.795,0Z" transform="translate(0 -0.003)" fill="#fff"/>
      </g>
    </g>
    <g id="Ellipse_18" data-name="Ellipse 18" transform="translate(330 22)" fill="none" stroke="#fff" stroke-width="1.2">
      <circle cx="14" cy="14" r="14" stroke="none"/>
      <circle cx="14" cy="14" r="13.4" fill="none"/>
    </g>
  </g>
</svg>
