<svg xmlns="http://www.w3.org/2000/svg" xmlns:xlink="http://www.w3.org/1999/xlink" width="57.033" height="57.226" viewBox="0 0 57.033 57.226">
  <defs>
    <filter id="Path_1450" x="0" y="0" width="57.033" height="57.226" filterUnits="userSpaceOnUse">
      <feOffset dy="3" input="SourceAlpha"/>
      <feGaussianBlur stdDeviation="3" result="blur"/>
      <feFlood flood-color="#3d7df2"/>
      <feComposite operator="in" in2="blur"/>
      <feComposite in="SourceGraphic"/>
    </filter>
    <filter id="Path_1452" x="9.642" y="10.355" width="37.917" height="36.517" filterUnits="userSpaceOnUse">
      <feOffset dy="3" input="SourceAlpha"/>
      <feGaussianBlur stdDeviation="3" result="blur-2"/>
      <feFlood flood-color="#3d7df2"/>
      <feComposite operator="in" in2="blur-2"/>
      <feComposite in="SourceGraphic"/>
    </filter>
  </defs>
  <g id="Group_227" data-name="Group 227" transform="translate(-60.278 -411.229)">
    <g transform="matrix(1, 0, 0, 1, 60.28, 411.23)" filter="url(#Path_1450)">
      <path id="Path_1450-2" data-name="Path 1450" d="M1298.337,795.188c.83-3.056,1.559-5.893,2.385-8.7a3.284,3.284,0,0,0-.251-2.574,19.406,19.406,0,1,1,19.992,10.829,18.627,18.627,0,0,1-10.694-1.681,3.137,3.137,0,0,0-2.386-.2c-2.581.724-5.178,1.391-7.77,2.073C1299.275,795.026,1298.927,795.073,1298.337,795.188Zm4.877-4.79c1.717-.441,3.2-.773,4.656-1.215a2.814,2.814,0,0,1,2.371.264,15.492,15.492,0,0,0,10.088,1.809,16.054,16.054,0,1,0-6.36-31.439c-7.95,1.895-16.072,12.254-9.887,23.537a3.23,3.23,0,0,1,.319,2.775C1303.968,787.462,1303.644,788.83,1303.214,790.4Z" transform="translate(-1289.34 -749.96)" fill="#fff"/>
    </g>
    <path id="Path_1451" data-name="Path 1451" d="M1316.022,802.575c.43-1.567.754-2.936,1.189-4.268a3.23,3.23,0,0,0-.319-2.775c-6.186-11.283,1.936-21.642,9.887-23.537a16.054,16.054,0,1,1,6.36,31.439,15.493,15.493,0,0,1-10.088-1.809,2.814,2.814,0,0,0-2.372-.264C1319.225,801.8,1317.739,802.134,1316.022,802.575Zm19.064-5.565c2.383-.022,3.964-.527,4.885-2.021.968-1.57,1.26-2.98-.921-3.681a8.348,8.348,0,0,1-.983-.461c-2.414-1.144-2.439-1.164-4.1.862a1.279,1.279,0,0,1-1.782.393,13.809,13.809,0,0,1-5.583-4.7c-.6-.853-.681-1.51.137-2.255a2.093,2.093,0,0,0,.442-2.83,21.852,21.852,0,0,1-.938-2.2c-.8-1.9-2.543-2.169-3.97-.619a5.724,5.724,0,0,0-.641,6.881,20.541,20.541,0,0,0,10.035,9.563A29.294,29.294,0,0,0,1335.086,797.01Z" transform="translate(-1241.867 -350.909)" fill="#3d7df2"/>
    <g transform="matrix(1, 0, 0, 1, 60.28, 411.23)" filter="url(#Path_1452)">
      <path id="Path_1452-2" data-name="Path 1452" d="M1356.934,822.052a29.31,29.31,0,0,1-3.417-1.069,20.542,20.542,0,0,1-10.035-9.563,5.724,5.724,0,0,1,.641-6.881c1.427-1.55,3.173-1.277,3.97.619a21.875,21.875,0,0,0,.938,2.2,2.093,2.093,0,0,1-.442,2.83c-.818.744-.739,1.4-.137,2.255a13.81,13.81,0,0,0,5.583,4.7,1.28,1.28,0,0,0,1.783-.393c1.659-2.025,1.683-2.005,4.1-.862a8.329,8.329,0,0,0,.983.461c2.181.7,1.889,2.111.921,3.681C1360.9,821.525,1359.317,822.03,1356.934,822.052Z" transform="translate(-1323.99 -787.18)" fill="#fff"/>
    </g>
  </g>
</svg>
